HIERARCHY
ROOT hip
{
	OFFSET 0.000000 0.000000 0.000000 
	CHANNELS 6 Xposition Yposition Zposition Xrotation Zrotation Yrotation
	JOINT abdomen
	{
		OFFSET 0.000000 3.402643 0.000000 
		CHANNELS 3 Xrotation Zrotation Yrotation
		JOINT chest
		{
			OFFSET 0.000000 8.438565 -0.680529 
			CHANNELS 3 Xrotation Zrotation Yrotation
			JOINT neck
			{
				OFFSET 0.000000 10.207942 -0.272212 
				CHANNELS 3 Xrotation Zrotation Yrotation
				JOINT head
				{
					OFFSET 0.000000 3.130431 0.000000 
					CHANNELS 3 Xrotation Zrotation Yrotation
					End Site
					{
						OFFSET 0.000000 3.130435 0.000000 
					}
				}
			}
			JOINT lCollar
			{
				OFFSET 3.470700 6.669187 -0.816635 
				CHANNELS 3 Yrotation Zrotation Xrotation
				JOINT lShldr
				{
					OFFSET 3.198488 0.000000 0.000000 
					CHANNELS 3 Zrotation Yrotation Xrotation
					JOINT lForeArm
					{
						OFFSET 10.139888 0.000000 0.000000 
						CHANNELS 3 Yrotation Zrotation Xrotation
						JOINT lHand
						{
							OFFSET 8.370511 0.000000 0.000000 
							CHANNELS 3 Zrotation Yrotation Xrotation
							End Site
							{
								OFFSET 4.083176 0.000000 0.000000 
							}
						}
					}
				}
			}
			JOINT rCollar
			{
				OFFSET -3.470700 6.669187 -0.816635 
				CHANNELS 3 Yrotation Zrotation Xrotation
				JOINT rShldr
				{
					OFFSET -3.198488 0.000000 0.000000 
					CHANNELS 3 Zrotation Yrotation Xrotation
					JOINT rForeArm
					{
						OFFSET -10.139888 0.000000 0.000000 
						CHANNELS 3 Yrotation Zrotation Xrotation
						JOINT rHand
						{
							OFFSET -8.370511 0.000000 0.000000 
							CHANNELS 3 Zrotation Yrotation Xrotation
							End Site
							{
								OFFSET -4.083176 0.000000 0.000000 
							}
						}
					}
				}
			}
		}
	}
	JOINT lThigh
	{
		OFFSET 5.308129 -1.633274 1.361059 
		CHANNELS 3 Xrotation Zrotation Yrotation
		JOINT lShin
		{
			OFFSET -2.041588 -20.007561 0.000000 
			CHANNELS 3 Xrotation Zrotation Yrotation
			JOINT lFoot
			{
				OFFSET 0.000000 -19.190928 -1.224953 
				CHANNELS 3 Xrotation Yrotation Zrotation
				End Site
				{
					OFFSET 0.000000 -2.449906 4.627600 
				}
			}
		}
	}
	JOINT rThigh
	{
		OFFSET -5.308129 -1.633274 1.361059 
		CHANNELS 3 Xrotation Zrotation Yrotation
		JOINT rShin
		{
			OFFSET 2.041588 -20.007561 0.000000 
			CHANNELS 3 Xrotation Zrotation Yrotation
			JOINT rFoot
			{
				OFFSET 0.000000 -19.190928 -1.224953 
				CHANNELS 3 Xrotation Yrotation Zrotation
				End Site
				{
					OFFSET 0.000000 -2.449906 4.627600 
				}
			}
		}
	}
}
MOTION
Frames: 16
Frame Time: 0.011111
67.725731 51.018112 88.652420 -0.069239 7.079039 -45.291672 26.566029 -9.958011 -9.260319 -18.864151 8.239628 -1.079232 -13.704863 11.679250 6.083952 51.950077 -21.936359 4.547449 3.020945 -4.671623 1.932447 -61.922337 -40.012451 26.480879 -80.693588 6.141812 22.916056 8.524705 12.647240 -36.849010 -4.079493 7.469375 2.114597 54.337322 12.337480 45.522053 63.833889 -9.456391 14.149014 -8.534408 -12.637552 51.820171 -2.488744 12.973159 -4.205124 34.607040 -5.050307 -5.449624 -16.686319 -17.161066 -8.801812 -24.821684 -16.218578 -9.416525 25.469055 5.566224 4.240252 0.989184 22.380508 4.392981 
67.341133 51.033749 88.653671 0.252354 6.979098 -46.083000 26.232435 -9.601580 -8.145983 -18.786448 7.999798 -0.840821 -13.735303 11.420988 5.897213 51.613827 -21.503286 4.383950 3.020945 -4.671623 1.932447 -61.955685 -39.513557 26.046429 -80.390266 6.292536 22.713522 8.524705 12.647240 -36.380260 -4.079493 7.469375 2.114597 54.616688 12.436485 45.222919 63.728554 -9.458673 14.108429 -8.534408 -12.637552 51.497906 -2.751418 13.594622 -3.550565 35.332222 -5.001744 -5.538920 -15.168425 -16.759291 -8.280016 -24.906513 -15.317539 -9.490009 25.954462 5.536461 4.286651 0.640026 21.541145 4.424671 
66.974991 51.009670 88.627098 0.792008 6.638553 -46.397480 26.145426 -8.709964 -7.223635 -18.896103 7.759808 -0.715968 -13.850175 11.068157 5.723292 51.417721 -20.901463 4.260081 3.020945 -4.671623 1.932447 -62.028778 -38.994331 25.607046 -79.966698 6.499627 22.448503 8.524705 12.647240 -36.145885 -4.079493 7.469375 2.114597 54.971710 12.738281 44.853199 63.409409 -9.454350 13.961745 -8.534408 -12.637552 51.077984 -3.407063 14.615436 -2.984913 36.454216 -4.923607 -5.661965 -13.891907 -16.430992 -7.834877 -24.681995 -14.233968 -9.710037 26.187357 5.516911 4.322954 0.230623 21.086475 4.539954 
66.550362 51.030933 88.779991 0.461231 6.020765 -47.052418 26.488214 -8.116589 -6.638443 -18.461828 7.860124 -0.586130 -14.099799 10.569328 5.698654 51.338264 -20.673353 4.233366 3.020945 -4.671623 1.932447 -62.607124 -38.542915 24.677114 -79.444351 6.740777 22.132328 8.524705 12.647240 -36.077526 -4.079493 7.469375 2.114597 54.637157 13.383589 45.102058 63.184685 -9.446576 13.853515 -8.534408 -12.637552 50.824074 -2.625733 14.877443 -2.575412 37.583256 -4.845578 -5.824365 -13.312299 -15.985772 -7.551418 -23.451563 -13.823518 -10.475409 26.410461 5.497076 4.348543 0.583701 19.913658 4.268155 
66.227058 51.050003 88.771873 0.721384 6.245167 -47.572788 26.222616 -7.797086 -6.529350 -18.420874 8.095448 -0.591785 -14.182048 10.435036 5.712606 51.196400 -20.852247 4.177371 3.020945 -4.671623 1.932447 -62.917976 -37.921032 23.411312 -78.826584 7.001738 21.754475 8.524705 12.647240 -35.891983 -4.079493 7.469375 2.114597 54.245136 13.786261 45.748943 63.279552 -9.445785 13.891264 -8.534408 -12.637552 50.482281 -3.553391 15.172976 -2.313503 38.951977 -4.722325 -5.981629 -12.047263 -15.454893 -7.090981 -23.823008 -13.413894 -10.289248 26.681177 5.486763 4.390198 0.333958 19.857473 4.364616 
65.856842 51.036873 88.752792 0.934796 6.129378 -48.179829 26.241844 -7.357827 -6.891054 -18.229853 8.611288 -0.710011 -14.293518 10.618519 5.824667 51.183308 -21.525677 4.155800 3.020945 -4.671623 1.932447 -63.305111 -37.180241 21.327686 -78.133453 7.274374 21.357830 8.524705 12.647240 -35.784557 -4.079493 7.469375 2.114597 53.766464 14.582172 46.813469 63.206078 -9.447469 13.864895 -8.534408 -12.637552 49.915874 -4.168318 15.699841 -1.833197 40.296127 -4.624708 -6.153256 -10.691472 -14.783786 -6.585935 -23.690067 -12.645530 -9.930383 26.800800 5.487130 4.400774 0.123967 20.002628 4.441609 
65.520409 51.018429 88.731224 0.782635 6.123064 -48.730255 26.629211 -7.243560 -7.384076 -18.166796 9.115969 -0.837125 -14.573443 10.838829 5.857682 51.305744 -22.135462 4.058615 3.020945 -4.671623 1.932447 -63.753185 -36.467358 19.421759 -77.423340 7.533159 20.949417 8.524705 12.647240 -35.706436 -4.079493 7.469375 2.114597 53.467571 15.450766 47.576900 63.193859 -9.442933 13.855479 -8.534408 -12.637552 49.329933 -4.879220 15.811364 -1.551994 42.084229 -4.478199 -6.363201 -9.246845 -14.096517 -6.071551 -23.333448 -12.261038 -9.765672 26.737432 5.507557 4.389399 -0.034995 19.792568 4.472422 
65.101723 51.103161 88.913818 0.887153 5.727835 -49.352840 26.425751 -6.312797 -7.019851 -17.516859 8.845033 -0.806618 -14.738228 11.131325 5.846469 51.201557 -22.823650 3.866615 3.020945 -4.671623 1.932447 -64.064255 -35.864758 18.107496 -76.612488 7.799263 20.508486 8.524705 12.647240 -35.628307 -4.079493 7.469375 2.114597 53.228069 16.014666 48.035961 63.409409 -9.454350 13.961745 -8.534408 -12.637552 48.870956 -4.870912 16.117706 -1.525316 43.514935 -4.377465 -6.488192 -8.050920 -13.025071 -5.566207 -22.323378 -11.708483 -10.699013 26.870230 5.487443 4.416678 0.602964 18.692337 4.150078 
64.787483 51.084087 88.781563 1.920900 5.001729 -49.723640 26.730368 -4.822039 -6.564435 -17.771713 9.076856 -0.863781 -14.732583 11.366142 5.869150 51.012501 -23.557610 3.680034 3.020945 -4.671623 1.932447 -64.443382 -35.201988 16.795444 -75.730949 8.057033 20.018877 8.524705 12.647240 -35.618538 -4.079493 7.469375 2.114597 52.948185 16.560137 48.375992 63.452148 -9.455843 13.984578 -8.534408 -12.637552 48.285015 -6.551189 17.926434 -1.624323 45.366982 -4.221690 -6.713642 -5.820899 -12.235667 -4.957852 -22.048349 -9.637138 -10.096288 26.891621 5.477923 4.426063 0.268679 19.627781 4.351644 
64.386002 51.136303 89.024506 0.305381 5.682062 -50.546211 26.890238 -6.134405 -7.246230 -17.175489 9.362690 -0.831971 -14.842418 11.206867 5.885166 50.867310 -23.704828 3.642293 3.020945 -4.671623 1.932447 -64.901390 -34.508072 15.480381 -74.781067 8.308263 19.511940 8.524705 12.647240 -35.696671 -4.079493 7.469375 2.114597 52.684521 16.997599 48.580299 63.717815 -9.458706 14.107571 -8.534408 -12.637552 47.738136 -5.516612 15.672663 -1.882380 46.647514 -4.087820 -6.866182 -5.106062 -10.814656 -4.609256 -21.346766 -11.386202 -10.726465 27.162640 5.467915 4.448318 0.973197 18.198763 3.969947 
64.107719 51.103470 88.959480 1.151805 5.274728 -50.747993 27.013899 -4.800355 -6.947122 -17.353168 9.412569 -0.926153 -15.137894 10.836790 5.903448 50.774906 -23.429216 3.780003 3.020945 -4.671623 1.932447 -65.302940 -33.932518 14.262599 -73.677605 8.562694 18.937542 8.524705 12.647240 -35.979870 -4.079493 7.469375 2.114597 52.366600 17.289986 48.850647 64.388245 -9.461746 14.407990 -8.534408 -12.637552 47.503769 -7.362444 16.873394 -2.125451 48.545815 -3.929142 -7.048666 -3.497846 -10.384217 -4.241376 -21.288198 -9.970418 -10.547657 27.432934 5.457550 4.489880 0.865557 18.741064 4.059238 
63.723747 51.127544 89.152718 0.289256 5.679710 -51.134010 26.944168 -5.186585 -7.449997 -16.750380 9.362361 -0.969548 -15.358353 10.714182 5.918641 50.533100 -23.314709 3.939572 3.020945 -4.671623 1.932447 -65.656830 -33.436073 13.037889 -72.519943 8.785950 18.339691 8.524705 12.647240 -36.468151 -4.079493 7.469375 2.114597 52.202560 17.753809 49.089169 64.931831 -9.462002 14.667240 -8.534408 -12.637552 47.376816 -7.301820 15.463821 -2.561766 50.000118 -3.792777 -7.199394 -2.952845 -9.717254 -4.056259 -20.873558 -10.982124 -11.187816 27.966475 5.419559 4.557583 1.441581 17.949228 3.806332 
63.449833 51.097221 89.099564 0.966308 5.531961 -51.352470 26.897957 -4.205873 -7.262656 -16.829731 9.355006 -1.041353 -15.326543 10.854387 5.897803 50.165794 -23.631897 3.887980 3.020945 -4.671623 1.932447 -66.078552 -32.879391 11.903296 -71.313469 8.984097 17.735535 8.524705 12.647240 -37.171280 -4.079493 7.469375 2.114597 52.244320 18.456064 49.018105 65.016731 -9.460506 14.704134 -8.534408 -12.637552 47.288925 -9.246512 16.160391 -3.053998 51.944141 -3.580398 -7.411199 -2.096212 -9.849701 -3.929734 -21.049557 -9.869452 -10.826442 28.226686 5.409161 4.588428 1.086695 18.547522 3.976894 
63.149044 51.083149 89.131767 1.255882 5.659909 -51.699711 26.631981 -3.637578 -7.203285 -16.680525 9.430362 -1.081231 -15.293810 10.964485 5.915533 49.990040 -24.084040 3.772121 3.020945 -4.671623 1.932447 -66.650978 -32.358150 10.778567 -69.961922 9.161279 17.069614 8.524705 12.647240 -38.079475 -4.079493 7.469375 2.114597 52.141151 19.279644 49.011700 64.931831 -9.462002 14.667240 -8.534408 -12.637552 47.357285 -10.735691 16.124918 -3.729357 53.660255 -3.404421 -7.586317 -1.655062 -10.003839 -3.874038 -21.225092 -9.439814 -10.776401 28.666615 5.389862 4.652295 1.211493 18.551273 3.924587 
62.839176 51.065323 89.221504 1.270726 5.866826 -52.250584 26.346121 -3.364566 -7.203901 -16.442541 9.477777 -1.096924 -15.305532 10.973577 5.981639 49.843334 -24.260344 3.868926 3.020945 -4.671623 1.932447 -67.107452 -31.966450 9.752429 -68.336769 9.313171 16.268808 8.524705 12.647240 -38.997448 -4.079493 7.469375 2.114597 52.003609 19.957623 49.000999 65.027382 -9.460068 14.705093 -8.534408 -12.637552 47.259624 -11.852028 15.650745 -4.355698 55.355618 -3.246707 -7.735672 -1.842149 -10.354214 -3.948956 -21.301291 -9.301954 -10.635590 29.056875 5.370317 4.701943 1.563067 18.391424 3.803397 
62.537441 51.046566 89.294662 1.158707 6.126974 -52.879597 26.146126 -3.320204 -7.313254 -16.281788 9.659593 -1.107073 -15.206342 10.939284 6.063232 49.574066 -24.388624 4.006310 3.020945 -4.671623 1.932447 -67.485184 -31.615566 8.865788 -66.524963 9.419725 15.407503 8.524705 12.647240 -39.768932 -4.079493 7.469375 2.114597 52.182415 20.577892 48.224365 64.878761 -9.462749 14.641379 -8.534408 -12.637552 46.488144 -12.937650 14.978934 -4.959300 56.922428 -3.062752 -7.885966 -2.174464 -10.783426 -4.062407 -21.461994 -9.246272 -10.329635 29.446848 5.350764 4.751501 1.885656 18.320490 3.690274 
